<svg width="363" height="332" viewBox="0 0 363 332" fill="none" xmlns="http://www.w3.org/2000/svg">
<path d="M357.745 332H0.290809C0.252619 332 0.214804 331.992 0.179521 331.977C0.144239 331.962 0.11218 331.94 0.085176 331.912C0.0581719 331.884 0.036751 331.851 0.0221365 331.815C0.007522 331.778 0 331.739 0 331.7C0 331.66 0.007522 331.621 0.0221365 331.584C0.036751 331.548 0.0581719 331.515 0.085176 331.487C0.11218 331.459 0.144239 331.437 0.179521 331.422C0.214804 331.407 0.252619 331.399 0.290809 331.399H357.745C357.822 331.399 357.896 331.431 357.95 331.487C358.005 331.543 358.035 331.62 358.035 331.7C358.035 331.779 358.005 331.856 357.95 331.912C357.896 331.968 357.822 332 357.745 332H357.745Z" fill="#292A2E"/>
<g opacity="0.65">
<path d="M357.745 332H0.290809C0.252619 332 0.214804 331.992 0.179521 331.977C0.144239 331.962 0.11218 331.94 0.085176 331.912C0.0581719 331.884 0.036751 331.851 0.0221365 331.815C0.007522 331.778 0 331.739 0 331.7C0 331.66 0.007522 331.621 0.0221365 331.584C0.036751 331.548 0.0581719 331.515 0.085176 331.487C0.11218 331.459 0.144239 331.437 0.179521 331.422C0.214804 331.407 0.252619 331.399 0.290809 331.399H357.745C357.822 331.399 357.896 331.431 357.95 331.487C358.005 331.543 358.035 331.62 358.035 331.7C358.035 331.779 358.005 331.856 357.95 331.912C357.896 331.968 357.822 332 357.745 332H357.745Z" fill="#292A2E"/>
</g>
<path d="M25.177 331.471L24.3611 331.309L37.1134 200.344L37.9294 200.507L25.177 331.471Z" fill="#494949"/>
<path d="M72.6611 331.471L71.8451 331.309L84.5975 200.344L85.413 200.507L72.6611 331.471Z" fill="#494949"/>
<path d="M177.621 331.471L178.437 331.309L165.685 200.344L164.869 200.507L177.621 331.471Z" fill="#494949"/>
<path d="M130.138 331.471L130.953 331.309L118.201 200.344L117.385 200.507L130.138 331.471Z" fill="#494949"/>
<path d="M113.226 142.707L112.402 142.82L119.852 200.484L120.675 200.37L113.226 142.707Z" fill="#494949"/>
<path d="M27.7177 142.706L26.8941 142.82L34.3438 200.483L35.1674 200.369L27.7177 142.706Z" fill="#494949"/>
<path d="M120.604 196.203H36.9676C34.711 196.203 32.8817 198.093 32.8817 200.425V200.426C32.8817 202.758 34.711 204.649 36.9676 204.649H120.604C122.861 204.649 124.69 202.758 124.69 200.426V200.425C124.69 198.093 122.861 196.203 120.604 196.203Z" fill="#292A2E"/>
<path opacity="0.8" d="M120.604 196.203H36.9676C34.711 196.203 32.8817 198.093 32.8817 200.425V200.426C32.8817 202.758 34.711 204.649 36.9676 204.649H120.604C122.861 204.649 124.69 202.758 124.69 200.426V200.425C124.69 198.093 122.861 196.203 120.604 196.203Z" fill="white"/>
<path d="M120.603 205.078H36.9676C35.7812 205.066 34.6473 204.571 33.8124 203.7C32.9775 202.828 32.5091 201.652 32.5091 200.426C32.5091 199.2 32.9775 198.023 33.8124 197.152C34.6473 196.281 35.7812 195.785 36.9676 195.773H120.603C121.789 195.785 122.923 196.281 123.758 197.152C124.593 198.023 125.061 199.2 125.061 200.426C125.061 201.652 124.593 202.828 123.758 203.7C122.923 204.571 121.789 205.066 120.603 205.078ZM36.9676 196.632C36.0009 196.643 35.0772 197.047 34.3972 197.757C33.7172 198.468 33.3358 199.427 33.3358 200.426C33.3358 201.425 33.7172 202.384 34.3972 203.094C35.0772 203.804 36.0009 204.209 36.9676 204.219H120.603C121.569 204.209 122.493 203.804 123.173 203.094C123.853 202.384 124.234 201.425 124.234 200.426C124.234 199.427 123.853 198.468 123.173 197.757C122.493 197.047 121.569 196.643 120.603 196.632H36.9676Z" fill="#292A2E"/>
<path d="M166.508 196.203H82.8718C80.6152 196.203 78.7859 198.093 78.7859 200.425V200.426C78.7859 202.758 80.6152 204.649 82.8718 204.649H166.508C168.765 204.649 170.594 202.758 170.594 200.426V200.425C170.594 198.093 168.765 196.203 166.508 196.203Z" fill="white"/>
<path d="M166.509 205.078H82.8722C82.2774 205.084 81.6874 204.968 81.1362 204.737C80.585 204.506 80.0837 204.164 79.6611 203.731C79.2385 203.299 78.903 202.784 78.674 202.216C78.4451 201.649 78.3272 201.04 78.3272 200.426C78.3272 199.811 78.4451 199.202 78.674 198.635C78.903 198.068 79.2385 197.553 79.6611 197.12C80.0837 196.688 80.585 196.346 81.1362 196.115C81.6874 195.884 82.2774 195.768 82.8722 195.773H166.509C167.104 195.768 167.694 195.884 168.245 196.115C168.796 196.346 169.297 196.688 169.72 197.12C170.143 197.553 170.478 198.068 170.707 198.635C170.936 199.202 171.054 199.811 171.054 200.426C171.054 201.04 170.936 201.649 170.707 202.216C170.478 202.784 170.143 203.299 169.72 203.731C169.297 204.164 168.796 204.506 168.245 204.737C167.694 204.968 167.104 205.084 166.509 205.078ZM82.8722 196.632C82.3869 196.627 81.9053 196.721 81.4555 196.909C81.0056 197.098 80.5963 197.376 80.2513 197.729C79.9063 198.082 79.6324 198.502 79.4455 198.965C79.2585 199.427 79.1623 199.924 79.1623 200.426C79.1623 200.927 79.2585 201.424 79.4455 201.887C79.6324 202.35 79.9063 202.77 80.2513 203.122C80.5963 203.475 81.0056 203.754 81.4555 203.942C81.9053 204.13 82.3869 204.225 82.8722 204.219H166.509C166.994 204.225 167.476 204.13 167.925 203.942C168.375 203.754 168.785 203.475 169.13 203.122C169.475 202.77 169.749 202.35 169.935 201.887C170.122 201.424 170.219 200.927 170.219 200.426C170.219 199.924 170.122 199.427 169.935 198.965C169.749 198.502 169.475 198.082 169.13 197.729C168.785 197.376 168.375 197.098 167.925 196.909C167.476 196.721 166.994 196.627 166.509 196.632H82.8722Z" fill="#292A2E"/>
<path d="M108.644 142.762H27.5304C26.2043 142.762 24.9235 142.264 23.9271 141.359C22.9307 140.455 22.2868 139.207 22.1156 137.848L16.7502 95.2649C16.6498 94.4689 16.7149 93.66 16.9412 92.8921C17.1674 92.1242 17.5496 91.415 18.0621 90.8119C18.5746 90.2087 19.2058 89.7256 19.9134 89.3946C20.621 89.0636 21.3887 88.8924 22.1654 88.8925H103.279C104.605 88.8925 105.886 89.3912 106.882 90.2956C107.878 91.2 108.522 92.4482 108.694 93.8072L114.059 136.39C114.159 137.186 114.094 137.995 113.868 138.763C113.642 139.53 113.259 140.24 112.747 140.843C112.235 141.446 111.603 141.929 110.896 142.26C110.188 142.591 109.421 142.762 108.644 142.762Z" fill="#292A2E"/>
<path opacity="0.8" d="M108.644 142.762H27.5304C26.2043 142.762 24.9235 142.264 23.9271 141.359C22.9307 140.455 22.2868 139.207 22.1156 137.848L16.7502 95.2649C16.6498 94.4689 16.7149 93.66 16.9412 92.8921C17.1674 92.1242 17.5496 91.415 18.0621 90.8119C18.5746 90.2087 19.2058 89.7256 19.9134 89.3946C20.621 89.0636 21.3887 88.8924 22.1654 88.8925H103.279C104.605 88.8925 105.886 89.3912 106.882 90.2956C107.878 91.2 108.522 92.4482 108.694 93.8072L114.059 136.39C114.159 137.186 114.094 137.995 113.868 138.763C113.642 139.53 113.259 140.24 112.747 140.843C112.235 141.446 111.603 141.929 110.896 142.26C110.188 142.591 109.421 142.762 108.644 142.762Z" fill="white"/>
<path d="M108.644 143.192H27.5304C26.1044 143.188 24.728 142.651 23.6564 141.678C22.5849 140.706 21.891 139.365 21.7035 137.904L16.338 95.3211C16.2301 94.4646 16.3002 93.5942 16.5436 92.7679C16.787 91.9416 17.1982 91.1785 17.7497 90.5295C18.3012 89.8805 18.9803 89.3606 19.7417 89.0044C20.5031 88.6482 21.3293 88.464 22.165 88.464H103.279C104.705 88.4673 106.082 89.0052 107.153 89.9779C108.225 90.9505 108.919 92.2919 109.106 93.7531L114.471 136.335C114.579 137.192 114.509 138.062 114.266 138.889C114.022 139.715 113.611 140.478 113.059 141.127C112.508 141.776 111.829 142.296 111.067 142.652C110.306 143.008 109.48 143.193 108.644 143.193V143.192ZM22.165 89.3218C21.4475 89.3218 20.7381 89.4801 20.0844 89.7859C19.4307 90.0917 18.8477 90.5382 18.3742 91.0954C17.9007 91.6527 17.5477 92.3079 17.3387 93.0173C17.1297 93.7268 17.0696 94.4741 17.1623 95.2095L22.5273 137.792C22.6883 139.047 23.284 140.198 24.2041 141.033C25.1241 141.868 26.306 142.33 27.5304 142.333H108.644C109.362 142.333 110.071 142.175 110.725 141.869C111.379 141.563 111.962 141.116 112.436 140.559C112.909 140.002 113.262 139.346 113.471 138.637C113.68 137.927 113.74 137.18 113.647 136.444L108.282 93.8618C108.121 92.6074 107.525 91.4559 106.605 90.6211C105.685 89.7862 104.503 89.3246 103.279 89.3218H22.165Z" fill="#292A2E"/>
<path d="M113.231 142.762H32.1173C30.7912 142.762 29.5103 142.264 28.5138 141.359C27.5173 140.455 26.8734 139.207 26.702 137.848L21.3366 95.2649C21.2364 94.4689 21.3016 93.66 21.5279 92.8922C21.7542 92.1244 22.1364 91.4152 22.6489 90.8122C23.1614 90.2091 23.7925 89.7259 24.5 89.3949C25.2075 89.0638 25.9752 88.8926 26.7519 88.8925H107.866C109.192 88.8925 110.473 89.3912 111.469 90.2956C112.465 91.1999 113.109 92.4481 113.281 93.8072L118.646 136.39C118.746 137.186 118.681 137.995 118.455 138.763C118.229 139.53 117.846 140.24 117.334 140.843C116.821 141.446 116.19 141.929 115.483 142.26C114.775 142.591 114.008 142.762 113.231 142.762Z" fill="white"/>
<path d="M113.231 143.192H32.1173C30.6913 143.188 29.3148 142.651 28.2432 141.678C27.1717 140.706 26.4778 139.365 26.2904 137.904L20.9249 95.3211C20.817 94.4646 20.8871 93.5942 21.1305 92.7679C21.3739 91.9416 21.7851 91.1785 22.3366 90.5295C22.8881 89.8805 23.5672 89.3606 24.3286 89.0044C25.09 88.6482 25.9161 88.464 26.7519 88.464H107.866C109.292 88.4673 110.668 89.0051 111.74 89.9778C112.812 90.9505 113.505 92.2919 113.693 93.7531L119.058 136.335C119.166 137.192 119.096 138.062 118.852 138.889C118.609 139.715 118.198 140.478 117.646 141.127C117.095 141.776 116.416 142.296 115.654 142.652C114.893 143.008 114.067 143.193 113.231 143.193V143.192ZM26.7519 89.3218C26.0343 89.3219 25.325 89.4801 24.6713 89.7859C24.0175 90.0917 23.4345 90.5382 22.961 91.0954C22.4874 91.6526 22.1344 92.3078 21.9253 93.0173C21.7163 93.7267 21.6561 94.4741 21.7488 95.2095L27.1142 137.792C27.275 139.047 27.8707 140.198 28.7908 141.033C29.7109 141.868 30.8928 142.33 32.1173 142.333H113.231C113.949 142.333 114.658 142.175 115.312 141.869C115.966 141.563 116.549 141.117 117.023 140.559C117.496 140.002 117.849 139.346 118.058 138.637C118.267 137.927 118.327 137.18 118.235 136.444L112.869 93.8618C112.708 92.6072 112.113 91.4555 111.193 90.6204C110.272 89.7853 109.09 89.3234 107.866 89.3206L26.7519 89.3218Z" fill="#292A2E"/>
<path d="M227.629 309.568C227.629 309.568 229.857 321.501 240.667 322.166C251.478 322.83 249.134 331.732 249.134 331.732H207.821V310.4L227.629 309.568Z" fill="black"/>
<path d="M149.032 302.034C149.032 302.034 145.934 313.757 155.351 319.286C164.768 324.815 158.863 331.732 158.863 331.732L121.792 312.883L130.903 293.742L149.032 302.034Z" fill="black"/>
<path d="M115.766 23.9764C115.766 23.9764 121.156 19.7718 122.492 10.0934C123.526 2.59957 116.837 7.45421 116.837 7.45421C116.837 7.45421 117.531 2.05129 113.722 2.58712C109.912 3.12294 107.781 8.79978 107.781 8.79978" fill="#0C0C0C"/>
<path d="M94.0343 3.21954C94.0343 3.21954 75.1338 5.31391 81.9661 31.7823L83.6387 31.8978L87.0337 32.1331" fill="#0C0C0C"/>
<path d="M112.601 59.4246C112.518 59.4135 111.595 75.2246 93.8203 73.8473C81.5149 72.895 77.1275 59.4023 76.8454 59.4023C78.1723 59.1108 79.8116 58.6686 80.4635 58.5166C81.8835 58.1759 83.1696 57.3964 84.1505 56.2819C85.1314 55.1673 85.7608 53.7705 85.9548 52.2773C86.315 50.0361 85.7055 38.5691 85.892 36.3012L104.781 40.6587C104.517 45.4481 102.67 56.5514 109.143 58.5166C110.222 58.8416 111.382 59.1404 112.601 59.4246Z" fill="#E98862"/>
<path opacity="0.52" d="M105.046 53.9788C104.751 52.9934 104.56 51.9775 104.478 50.9493C104.271 48.6027 104.313 46.2396 104.603 43.9024C100.763 43.3669 97.1466 41.7291 94.1631 39.1753C93.8124 40.514 91.8835 46.3634 92.4182 47.636C93.4257 50.0408 98.1687 53.9788 105.046 53.9788Z" fill="#0C0C0C"/>
<path d="M101.148 50.8493C93.6957 50.1584 84.7766 45.2926 84.6482 34.8384L84.5319 25.4061C84.4035 14.9519 89.6119 6.40746 99.1363 6.28252C108.66 6.15715 115.884 14.5384 116.012 24.9922L116.063 29.168C116.057 30.6022 115.956 32.0343 115.761 33.4542C115.272 37.211 114.514 42.9226 112.048 46.7868C109.718 50.4341 105.908 51.2906 101.148 50.8493Z" fill="#E98862"/>
<path d="M104.605 41.2937C106.143 41.3657 107.676 41.0632 109.079 40.4105C109.108 40.3977 109.135 40.3791 109.157 40.3558C109.179 40.3325 109.196 40.305 109.208 40.2747C109.22 40.2444 109.226 40.2121 109.225 40.1795C109.225 40.1469 109.219 40.1146 109.206 40.0846C109.194 40.0546 109.176 40.0275 109.153 40.0046C109.131 39.9818 109.104 39.9638 109.075 39.9517C109.045 39.9395 109.014 39.9334 108.983 39.9338C108.951 39.9341 108.92 39.9409 108.891 39.9537C105.866 41.2868 103.12 41.0915 100.949 39.3891C100.905 39.3533 100.859 39.3199 100.812 39.2891C100.758 39.2629 100.696 39.2589 100.638 39.2777C100.581 39.2965 100.533 39.3368 100.503 39.3907C100.473 39.4446 100.463 39.5081 100.476 39.5688C100.489 39.6294 100.524 39.6828 100.573 39.7184C100.591 39.7296 100.619 39.7523 100.656 39.7837C101.798 40.6821 103.173 41.2079 104.605 41.2937Z" fill="#0C0C0C"/>
<path d="M104.533 43.6487C104.811 43.6666 105.09 43.6597 105.367 43.6281C105.43 43.6211 105.488 43.5884 105.528 43.5372C105.568 43.486 105.587 43.4205 105.58 43.355C105.573 43.2895 105.542 43.2295 105.492 43.1881C105.443 43.1467 105.379 43.1274 105.316 43.1343C103.651 43.3172 102.857 42.5289 102.823 42.495C102.778 42.4505 102.717 42.4261 102.655 42.427C102.592 42.4279 102.532 42.454 102.488 42.4997C102.444 42.5454 102.418 42.6072 102.418 42.6719C102.417 42.7366 102.44 42.7991 102.483 42.8462C103.056 43.3502 103.781 43.6337 104.533 43.6487Z" fill="#0C0C0C"/>
<path d="M112.867 31.1783C113.515 31.1783 114.04 30.6354 114.04 29.9658C114.04 29.2961 113.515 28.7533 112.867 28.7533C112.219 28.7533 111.693 29.2961 111.693 29.9658C111.693 30.6354 112.219 31.1783 112.867 31.1783Z" fill="#0C0C0C"/>
<path d="M101.405 30.435C102.053 30.435 102.579 29.8922 102.579 29.2226C102.579 28.5529 102.053 28.0101 101.405 28.0101C100.758 28.0101 100.232 28.5529 100.232 29.2226C100.232 29.8922 100.758 30.435 101.405 30.435Z" fill="#0C0C0C"/>
<path d="M85.2788 38.0156C82.3845 38.0538 79.999 34.8844 79.9612 31.8931C79.9234 28.9019 82.2503 27.2218 85.1447 27.1836L86.6606 29.1681L87.7665 37.983L85.2788 38.0156Z" fill="#E98862"/>
<path d="M88.1566 33.2091C88.1566 33.2091 89.1341 18.4167 93.4743 17.5035C96.3649 16.8951 103.375 21.1324 109.867 19.8525C112.708 19.2943 115.405 20.0195 115.679 21.4059C115.787 21.955 117.557 14.064 113.109 8.07719C109.567 3.31143 97.9772 1.96328 92.7044 3.5261C78.1046 7.85479 84.5473 27.8349 84.5473 27.8349L85.1983 32.9343L88.1566 33.2091Z" fill="#0C0C0C"/>
<path d="M106.353 37.8027C106.359 37.8031 106.365 37.8031 106.372 37.8027C107.304 37.7928 108.868 37.6691 108.861 36.9478C108.855 36.3502 107.21 29.9173 107.022 29.1857C107.001 29.1286 106.961 29.0816 106.908 29.0537C106.856 29.0259 106.795 29.0191 106.738 29.0348C106.681 29.0505 106.632 29.0875 106.6 29.1386C106.568 29.1897 106.555 29.2513 106.565 29.3115C107.296 32.1606 108.384 36.5468 108.389 36.9539C108.298 37.1256 107.335 37.302 106.369 37.3124C106.308 37.3137 106.25 37.3392 106.207 37.3835C106.164 37.4278 106.138 37.4876 106.137 37.5506C106.135 37.6135 106.157 37.6748 106.197 37.7217C106.238 37.7686 106.294 37.7976 106.355 37.8027H106.353Z" fill="#0C0C0C"/>
<path d="M109.537 23.3916C110.517 23.1128 111.552 23.1128 112.532 23.3916C113.014 23.5253 113.473 23.7332 113.895 24.0081C114.312 24.2773 114.694 24.5999 115.033 24.9682C115.098 25.0331 115.135 25.1218 115.138 25.2151C115.14 25.3085 115.107 25.3991 115.046 25.4676C114.984 25.5361 114.899 25.577 114.809 25.5815C114.719 25.5861 114.63 25.5539 114.563 25.492L114.542 25.4731C114.228 25.1731 113.879 24.915 113.503 24.705C113.134 24.4961 112.737 24.3463 112.324 24.2606C111.513 24.0843 110.671 24.1328 109.883 24.4014L109.85 24.4134C109.72 24.4609 109.577 24.4531 109.452 24.3917C109.328 24.3303 109.232 24.2204 109.186 24.0861C109.141 23.9518 109.148 23.8041 109.207 23.6755C109.267 23.547 109.373 23.4481 109.503 23.4006L109.537 23.3916Z" fill="#0C0C0C"/>
<path d="M102.596 24C101.85 23.6254 101.021 23.4611 100.194 23.5238C99.7747 23.5521 99.3614 23.6459 98.9689 23.8021C98.5698 23.9587 98.1913 24.1664 97.8422 24.4203L97.8198 24.4358C97.7448 24.4854 97.6543 24.5033 97.5669 24.4857C97.4795 24.4682 97.4021 24.4165 97.3506 24.3414C97.2992 24.2664 97.2777 24.1737 97.2906 24.0827C97.3036 23.9917 97.3499 23.9093 97.4201 23.8527C97.8034 23.5344 98.224 23.2673 98.6718 23.0576C99.1254 22.8435 99.6074 22.7008 100.102 22.6342C100.597 22.5623 101.099 22.561 101.595 22.6304C102.103 22.6957 102.6 22.8355 103.071 23.0456C103.198 23.1025 103.297 23.2091 103.348 23.342C103.399 23.4748 103.396 23.623 103.341 23.754C103.286 23.8849 103.183 23.9879 103.054 24.0402C102.926 24.0926 102.782 24.09 102.656 24.033C102.646 24.0288 102.636 24.024 102.627 24.0189L102.596 24Z" fill="#0C0C0C"/>
<path d="M108.142 13.2083C110.284 12.7457 111.487 9.72892 110.828 6.47009C110.17 3.21126 107.899 0.94446 105.756 1.40705C103.614 1.86964 102.411 4.88645 103.07 8.14528C103.729 11.4041 106 13.6709 108.142 13.2083Z" fill="#0C0C0C"/>
<path d="M126.072 298.722L157.334 196.799H100.668C89.2845 196.799 84.5394 186.823 84.5394 175.06C84.5394 163.297 95.7297 152.985 107.112 152.985H183.59C190.533 152.985 198.317 157.373 202.128 163.371C205.938 169.369 204.908 178.663 202.147 185.246L152.087 310.902" fill="#262626"/>
<path opacity="0.8" d="M126.072 298.722L157.334 196.799H100.668C89.2845 196.799 84.5394 186.823 84.5394 175.06C84.5394 163.297 95.7297 152.985 107.112 152.985H183.59C190.533 152.985 198.317 157.373 202.128 163.371C205.938 169.369 204.908 178.663 202.147 185.246L152.087 310.902" fill="#0A0A0A"/>
<path d="M205.445 320.65L153.173 196.799L84.5385 196.794C68.4564 195.491 61.091 186.383 61.3253 174.622C61.5563 163.01 67.2454 151.541 78.4303 151.541H170.937C179.213 151.717 185.724 161.168 188.794 169.112L232.249 313.067" fill="#262626"/>
<path d="M56.6442 151.683C56.6442 151.683 53.5961 172.226 58.4276 183.647C64.4594 197.906 87.0711 196.795 87.0711 196.795L85.7969 151.542L56.6442 151.683Z" fill="#262626"/>
<path d="M190.761 151.279L142.279 140.897C140.258 140.464 138.376 139.512 136.807 138.128C135.237 136.745 134.03 134.974 133.298 132.981L114.23 81.0496C113.649 79.491 113.372 77.8293 113.415 76.1598C113.457 74.4903 113.819 72.846 114.478 71.3213C115.137 69.7965 116.082 68.4215 117.257 67.275C118.432 66.1286 119.815 65.2334 121.325 64.6408C122.836 64.0483 124.445 63.77 126.061 63.8221C127.676 63.8742 129.265 64.2556 130.737 64.9444C132.209 65.6331 133.535 66.6157 134.639 67.8356C135.743 69.0555 136.602 70.4888 137.168 72.053L153.849 117.478L195.74 126.449C195.74 126.449 191.601 151.459 190.761 151.279Z" fill="#1F41BB"/>
<path d="M134.686 94.2392C134.126 101.037 130.158 143.447 129.618 151.82H56.6761C56.257 144.268 54.375 111.246 52.7859 96.4769C51.2688 82.3853 49.1421 75.9726 50.8895 71.5932C53.9712 63.8697 63.7806 60.4203 70.4235 59.4912C74.4795 58.9236 80.5802 58.5166 80.5802 58.5166C80.5802 58.5166 81.097 69.3159 93.414 69.917C110.181 70.7328 109.061 58.5166 109.144 58.5166C111.86 58.5166 126.646 60.5581 130.343 63.0483C135.565 66.566 137.108 71.3592 137.169 75.7635C137.239 80.8341 135.321 86.5276 134.686 94.2392Z" fill="#1F41BB"/>
<path d="M131.819 128.891H131.802C131.775 128.888 131.748 128.88 131.724 128.867C131.7 128.855 131.678 128.837 131.661 128.815C131.643 128.794 131.63 128.769 131.621 128.742C131.613 128.715 131.61 128.687 131.612 128.659L133.506 105.15C133.507 105.122 133.514 105.094 133.527 105.069C133.539 105.043 133.556 105.021 133.577 105.002C133.598 104.984 133.622 104.97 133.648 104.962C133.675 104.954 133.702 104.951 133.73 104.954C133.757 104.956 133.783 104.964 133.808 104.977C133.832 104.99 133.853 105.008 133.871 105.029C133.889 105.051 133.902 105.076 133.91 105.103C133.919 105.129 133.922 105.158 133.92 105.186L132.026 128.694C132.021 128.748 131.998 128.798 131.96 128.834C131.921 128.87 131.871 128.89 131.819 128.891Z" fill="#0C0C0C"/>
<path d="M143.546 147.158L159.551 96.3129C159.832 95.4194 160.379 94.6409 161.115 94.0888C161.851 93.5366 162.736 93.2392 163.646 93.2392H228.85C229.53 93.2392 230.2 93.4054 230.805 93.7244C231.411 94.0433 231.935 94.5059 232.334 95.0743C232.734 95.6426 232.997 96.3007 233.103 96.9945C233.209 97.6884 233.155 98.3983 232.945 99.0663L216.94 149.911C216.659 150.804 216.112 151.583 215.376 152.135C214.64 152.687 213.755 152.985 212.845 152.985H147.641C146.961 152.985 146.291 152.818 145.686 152.5C145.08 152.181 144.556 151.718 144.157 151.15C143.757 150.581 143.494 149.923 143.388 149.229C143.282 148.536 143.336 147.826 143.546 147.158Z" fill="#292A2E"/>
<path opacity="0.2" d="M143.546 147.158L159.551 96.3129C159.832 95.4194 160.379 94.6409 161.115 94.0888C161.851 93.5366 162.736 93.2392 163.646 93.2392H228.85C229.53 93.2392 230.2 93.4054 230.805 93.7244C231.411 94.0433 231.935 94.5059 232.334 95.0743C232.734 95.6426 232.997 96.3007 233.103 96.9945C233.209 97.6884 233.155 98.3983 232.945 99.0663L216.94 149.911C216.659 150.804 216.112 151.583 215.376 152.135C214.64 152.687 213.755 152.985 212.845 152.985H147.641C146.961 152.985 146.291 152.818 145.686 152.5C145.08 152.181 144.556 151.718 144.157 151.15C143.757 150.581 143.494 149.923 143.388 149.229C143.282 148.536 143.336 147.826 143.546 147.158Z" fill="white"/>
<path d="M156.602 148.862H112.954C111.866 148.862 110.985 149.773 110.985 150.897V150.95C110.985 152.074 111.866 152.985 112.954 152.985H156.602C157.689 152.985 158.571 152.074 158.571 150.95V150.897C158.571 149.773 157.689 148.862 156.602 148.862Z" fill="#292A2E"/>
<path opacity="0.2" d="M156.602 148.862H112.954C111.866 148.862 110.985 149.773 110.985 150.897V150.95C110.985 152.074 111.866 152.985 112.954 152.985H156.602C157.689 152.985 158.571 152.074 158.571 150.95V150.897C158.571 149.773 157.689 148.862 156.602 148.862Z" fill="white"/>
<path d="M188.246 132.66C192.022 132.66 195.084 129.496 195.084 125.592C195.084 121.689 192.022 118.525 188.246 118.525C184.469 118.525 181.407 121.689 181.407 125.592C181.407 129.496 184.469 132.66 188.246 132.66Z" fill="white"/>
<path d="M135.347 84.7617H118.009V106.737H135.347V84.7617Z" fill="white"/>
<path d="M118.009 103.087C116.604 103.087 115.231 102.657 114.064 101.85C112.896 101.044 111.986 99.8981 111.449 98.5573C110.911 97.2164 110.771 95.741 111.045 94.3176C111.319 92.8942 111.995 91.5867 112.988 90.5604C113.981 89.5342 115.246 88.8353 116.623 88.5522C118.001 88.269 119.428 88.4144 120.726 88.9698C122.023 89.5252 123.132 90.4657 123.912 91.6724C124.692 92.8791 125.109 94.2979 125.109 95.7492C125.107 97.6947 124.358 99.5599 123.027 100.936C121.696 102.311 119.891 103.085 118.009 103.087ZM118.009 91.417C117.179 91.417 116.369 91.6712 115.679 92.1472C114.99 92.6233 114.453 93.3 114.135 94.0917C113.818 94.8834 113.735 95.7546 113.897 96.595C114.059 97.4354 114.458 98.2074 115.044 98.8133C115.631 99.4192 116.378 99.8318 117.191 99.9989C118.004 100.166 118.847 100.08 119.613 99.7522C120.379 99.4242 121.034 98.8689 121.494 98.1563C121.955 97.4438 122.201 96.6061 122.201 95.7492C122.2 94.6005 121.758 93.4992 120.972 92.687C120.186 91.8748 119.12 91.4181 118.009 91.417Z" fill="white"/>
<path d="M119.009 99.0049C118.85 98.5805 118.553 98.227 118.168 98.0065C117.783 97.786 117.336 97.7125 116.903 97.7989C116.912 97.7783 116.916 97.7563 116.916 97.7341L117.498 97.4653C117.905 97.2862 118.241 96.9672 118.447 96.5621C118.653 96.1571 118.717 95.6909 118.628 95.2426C118.567 94.9626 118.447 94.7001 118.276 94.4741C118.105 94.2481 117.887 94.0641 117.639 93.9354C117.391 93.8067 117.118 93.7366 116.84 93.73C116.563 93.7234 116.287 93.7806 116.034 93.8974L114.662 94.5315C114.662 94.526 114.662 94.5204 114.659 94.5148C114.653 94.5034 114.647 94.4927 114.639 94.483C114.977 94.2197 115.219 93.8459 115.325 93.4224C115.431 92.999 115.395 92.5509 115.223 92.1512C114.842 91.086 113.491 91.001 112.599 91.4128L109.012 92.9082L110.094 91.7734C110.434 91.4034 110.624 90.9141 110.628 90.4045C110.631 89.8948 110.448 89.4027 110.114 89.0277C109.934 88.8405 109.72 88.6929 109.484 88.5939C109.248 88.495 108.995 88.4469 108.74 88.4524C108.485 88.458 108.235 88.5171 108.003 88.6262C107.771 88.7353 107.563 88.8921 107.392 89.087L94.6375 103.482L98.9996 107.824C100.354 109.172 102.067 110.072 103.92 110.408C105.772 110.743 107.68 110.499 109.397 109.707L117.171 106.105C117.579 105.926 117.914 105.607 118.12 105.202C118.326 104.797 118.39 104.331 118.301 103.883C118.213 103.48 118.003 103.117 117.701 102.847C117.399 102.577 117.022 102.413 116.624 102.38C116.628 102.358 116.628 102.335 116.624 102.312C116.62 102.29 116.611 102.269 116.599 102.25C116.587 102.231 116.571 102.215 116.553 102.202C116.534 102.19 116.514 102.181 116.492 102.177L117.928 101.515C118.382 101.316 118.746 100.946 118.947 100.48C119.148 100.014 119.17 99.487 119.009 99.0049Z" fill="#E98862"/>
<path opacity="0.2" d="M112.068 95.7496C112.027 95.7498 111.987 95.7351 111.955 95.7081C111.924 95.681 111.902 95.6434 111.894 95.6016C111.887 95.5599 111.893 95.5166 111.913 95.4794C111.933 95.4423 111.965 95.4134 112.003 95.398L114.43 94.4105C114.451 94.4017 114.474 94.3974 114.497 94.3978C114.52 94.3982 114.543 94.4034 114.564 94.4129C114.586 94.4224 114.605 94.4362 114.621 94.4534C114.637 94.4705 114.65 94.4908 114.658 94.5131C114.667 94.5353 114.671 94.5591 114.67 94.583C114.67 94.6069 114.665 94.6305 114.656 94.6524C114.646 94.6743 114.633 94.6942 114.617 94.7108C114.6 94.7274 114.58 94.7405 114.559 94.7492L112.133 95.7367C112.112 95.7451 112.09 95.7495 112.068 95.7496Z" fill="#0C0C0C"/>
<path opacity="0.2" d="M113.422 99.2952C113.381 99.2951 113.342 99.2803 113.31 99.2534C113.279 99.2265 113.257 99.1891 113.25 99.1477C113.242 99.1063 113.248 99.0633 113.268 99.0263C113.287 98.9892 113.319 98.9602 113.356 98.9444L116.675 97.5649C116.718 97.5494 116.765 97.5515 116.806 97.5709C116.847 97.5902 116.88 97.6253 116.897 97.6688C116.914 97.7123 116.914 97.7608 116.897 97.8043C116.88 97.8478 116.848 97.883 116.806 97.9024L113.488 99.2823C113.467 99.2907 113.445 99.2951 113.422 99.2952Z" fill="#0C0C0C"/>
<path opacity="0.2" d="M114.869 103.145C114.828 103.145 114.788 103.13 114.757 103.102C114.725 103.075 114.703 103.037 114.696 102.995C114.689 102.953 114.696 102.91 114.716 102.873C114.737 102.836 114.769 102.807 114.808 102.792L116.39 102.179C116.433 102.162 116.482 102.163 116.524 102.183C116.567 102.203 116.6 102.24 116.617 102.285C116.633 102.33 116.632 102.38 116.613 102.424C116.593 102.468 116.558 102.502 116.514 102.52L114.932 103.133C114.912 103.141 114.891 103.145 114.869 103.145Z" fill="#0C0C0C"/>
<path d="M122.698 70.7835C122.621 70.7835 122.546 70.7618 122.481 70.7205C122.415 70.6793 122.362 70.6203 122.327 70.5499C121.382 68.644 120.205 66.2714 120.337 63.7842C120.443 61.8062 121.34 60.0489 122.207 58.3517C122.767 57.3258 123.244 56.2539 123.634 55.147C124.11 53.6196 124.229 51.9978 123.984 50.4134C123.739 48.8291 123.135 47.327 122.222 46.0294C122.187 45.9842 122.162 45.9324 122.148 45.877C122.133 45.8216 122.13 45.7638 122.137 45.707C122.145 45.6501 122.163 45.5954 122.191 45.546C122.22 45.4967 122.257 45.4537 122.302 45.4196C122.347 45.3855 122.397 45.361 122.451 45.3475C122.505 45.3341 122.561 45.3319 122.616 45.3412C122.671 45.3505 122.723 45.3711 122.77 45.4017C122.817 45.4323 122.858 45.4723 122.89 45.5193C123.881 46.9275 124.538 48.5578 124.805 50.2776C125.072 51.9973 124.942 53.758 124.427 55.4162C124.023 56.5689 123.528 57.6849 122.945 58.7527C122.081 60.4439 121.265 62.0411 121.17 63.8319C121.049 66.0864 122.123 68.2499 123.069 70.1583C123.102 70.2237 123.118 70.2967 123.115 70.3701C123.112 70.4436 123.091 70.5151 123.054 70.5778C123.017 70.6406 122.965 70.6924 122.903 70.7284C122.841 70.7644 122.771 70.7834 122.7 70.7835H122.698Z" fill="white"/>
<path d="M129.368 77.4847C129.276 77.4847 129.187 77.4531 129.114 77.3948C129.041 77.3365 128.989 77.2548 128.966 77.1627C128.943 77.0705 128.95 76.9731 128.987 76.8856C129.023 76.7982 129.087 76.7258 129.167 76.6797C130.707 75.8021 130.879 73.3595 130.156 71.5052C129.797 70.6529 129.377 69.8294 128.9 69.0416C128.262 68.0208 127.743 66.9255 127.355 65.7785C126.958 64.3802 126.933 62.8971 127.283 61.4854C127.632 60.0736 128.343 58.7852 129.341 57.7557C129.421 57.6776 129.527 57.635 129.636 57.6372C129.746 57.6394 129.85 57.6862 129.926 57.7674C130.002 57.8487 130.045 57.9577 130.043 58.0709C130.042 58.1841 129.998 58.2923 129.92 58.3719C129.03 59.29 128.396 60.4388 128.084 61.6977C127.773 62.9567 127.795 64.2791 128.149 65.5261C128.518 66.6082 129.01 67.6412 129.615 68.6036C130.114 69.4281 130.553 70.2905 130.926 71.1836C131.773 73.3548 131.585 76.2821 129.568 77.431C129.507 77.466 129.438 77.4845 129.368 77.4847Z" fill="white"/>
<path d="M109.261 114.91L48.0873 141.075C45.8817 142.008 43.4609 142.257 41.1207 141.791C38.7805 141.325 36.6221 140.165 34.9095 138.453C33.1968 136.74 32.0039 134.549 31.4765 132.147C30.9492 129.745 31.1102 127.236 31.9399 124.927L50.1853 73.4252C52.5442 66.8614 59.1891 63.087 65.5408 65.5252C68.5907 66.696 71.0657 69.0709 72.4214 72.1275C73.777 75.1841 73.9022 78.6721 72.7695 81.8241L64.4474 106.2L100.3 91.9155" fill="#1F41BB"/>
<path d="M109.112 115.144C109.079 115.143 109.048 115.133 109.02 115.114C108.993 115.096 108.972 115.069 108.96 115.038L100.059 92.1967L64.3265 106.449C64.2969 106.46 64.2646 106.463 64.2336 106.456C64.2026 106.45 64.1741 106.434 64.1517 106.41C64.1294 106.387 64.114 106.358 64.1075 106.326C64.1011 106.293 64.1038 106.26 64.1154 106.23L69.6408 91.5733C69.6566 91.5316 69.6877 91.498 69.7274 91.48C69.7671 91.4621 69.8121 91.4611 69.8525 91.4774C69.8929 91.4937 69.9253 91.5259 69.9427 91.5669C69.9601 91.6079 69.9611 91.6544 69.9453 91.6961L64.5546 105.995L100.092 91.8206C100.132 91.8047 100.176 91.8056 100.216 91.8233C100.255 91.841 100.286 91.8739 100.302 91.9151L109.264 114.911C109.279 114.953 109.278 114.999 109.261 115.041C109.245 115.082 109.213 115.114 109.173 115.132C109.153 115.14 109.133 115.144 109.112 115.144Z" fill="#0C0C0C"/>
<path d="M53.1042 110.984C53.0659 110.984 53.0287 110.971 52.9991 110.945C52.9696 110.92 52.9494 110.885 52.9423 110.846C52.9352 110.808 52.9415 110.767 52.9602 110.733C52.9788 110.698 53.0086 110.672 53.0444 110.657L64.2359 106.106C64.256 106.098 64.2775 106.093 64.2992 106.094C64.3209 106.094 64.3423 106.098 64.3623 106.107C64.3823 106.116 64.4003 106.129 64.4155 106.145C64.4306 106.161 64.4425 106.18 64.4505 106.201C64.4584 106.222 64.4623 106.244 64.4618 106.266C64.4614 106.289 64.4566 106.311 64.4478 106.331C64.439 106.352 64.4264 106.37 64.4106 106.386C64.3949 106.401 64.3763 106.413 64.356 106.421L53.164 110.972C53.1449 110.98 53.1246 110.984 53.1042 110.984Z" fill="#0C0C0C"/>
<path d="M55.7107 138.019C55.6727 138.02 55.6359 138.006 55.6066 137.981C55.5772 137.956 55.5571 137.922 55.5497 137.883C55.5424 137.845 55.5482 137.805 55.5662 137.771C55.5842 137.736 55.6132 137.709 55.6483 137.694L109.051 114.819C109.071 114.81 109.092 114.806 109.114 114.806C109.135 114.806 109.156 114.81 109.176 114.819C109.196 114.827 109.214 114.84 109.229 114.856C109.244 114.871 109.256 114.89 109.265 114.91C109.273 114.931 109.277 114.953 109.277 114.975C109.277 114.997 109.273 115.019 109.264 115.04C109.256 115.06 109.244 115.079 109.229 115.094C109.214 115.11 109.196 115.122 109.176 115.131L55.773 138.006C55.7533 138.015 55.7321 138.019 55.7107 138.019Z" fill="#0C0C0C"/>
<path d="M326.832 275.695C326.722 275.695 326.616 275.65 326.538 275.569C325.953 274.964 324.999 263.866 322.429 230.821C321.377 217.3 320.384 204.529 319.66 196.767C319.608 196.213 319.4 196.148 319.331 196.127C318.339 195.818 315.321 198.277 313.637 200.43C313.568 200.519 313.467 200.575 313.358 200.587C313.248 200.599 313.138 200.566 313.053 200.494C312.967 200.423 312.912 200.319 312.9 200.206C312.889 200.093 312.921 199.979 312.99 199.891C314.105 198.467 317.736 194.734 319.57 195.305C319.94 195.42 320.401 195.752 320.487 196.685C321.212 204.453 322.205 217.228 323.257 230.752C324.819 250.833 326.588 273.582 327.169 275.015C327.214 275.079 327.241 275.155 327.246 275.233C327.252 275.312 327.237 275.391 327.202 275.461C327.167 275.532 327.114 275.591 327.049 275.632C326.984 275.673 326.909 275.695 326.832 275.695Z" fill="#494949"/>
<path d="M318.592 211.009C325.486 205.298 327.771 196.409 323.696 191.155C319.62 185.901 310.728 186.271 303.835 191.982C296.941 197.693 294.656 206.582 298.731 211.836C302.806 217.09 311.698 216.72 318.592 211.009Z" fill="#1F41BB"/>
<path opacity="0.2" d="M318.592 211.009C325.486 205.298 327.771 196.409 323.696 191.155C319.62 185.901 310.728 186.271 303.835 191.982C296.941 197.693 294.656 206.582 298.731 211.836C302.806 217.09 311.698 216.72 318.592 211.009Z" fill="white"/>
<path d="M300.663 213.173C300.624 213.173 300.585 213.161 300.552 213.139C300.519 213.117 300.492 213.086 300.475 213.049C300.459 213.012 300.452 212.971 300.458 212.931C300.463 212.89 300.479 212.852 300.504 212.821L320.151 188.335C320.168 188.313 320.189 188.295 320.213 188.281C320.238 188.268 320.264 188.259 320.292 188.256C320.319 188.253 320.347 188.256 320.373 188.264C320.4 188.273 320.424 188.286 320.445 188.305C320.467 188.323 320.484 188.345 320.497 188.371C320.51 188.396 320.517 188.423 320.52 188.452C320.522 188.48 320.519 188.509 320.51 188.536C320.502 188.563 320.488 188.588 320.47 188.61L300.823 213.095C300.804 213.119 300.779 213.139 300.752 213.152C300.724 213.166 300.694 213.173 300.663 213.173Z" fill="white"/>
<path d="M331.117 270.446C331.051 270.446 330.986 270.429 330.927 270.398C330.868 270.367 330.817 270.321 330.779 270.265C330.74 270.209 330.715 270.145 330.706 270.077C330.696 270.009 330.703 269.94 330.725 269.875L338.105 247.941C338.322 247.297 338.692 246.719 339.182 246.26C339.671 245.802 340.264 245.478 340.906 245.318C341.548 245.158 342.218 245.167 342.856 245.344C343.494 245.521 344.078 245.861 344.556 246.332L348.457 250.184C348.537 250.263 348.583 250.371 348.586 250.485C348.588 250.598 348.547 250.709 348.471 250.791C348.395 250.873 348.29 250.921 348.18 250.924C348.07 250.926 347.963 250.883 347.883 250.805L343.982 246.953C343.605 246.581 343.143 246.313 342.64 246.173C342.137 246.034 341.607 246.027 341.101 246.153C340.594 246.279 340.126 246.535 339.74 246.897C339.353 247.258 339.061 247.714 338.889 248.223L331.51 270.157C331.481 270.241 331.428 270.314 331.358 270.366C331.288 270.418 331.204 270.446 331.117 270.446Z" fill="#494949"/>
<path d="M359.358 262.328C364.467 258.149 364.164 248.957 358.68 241.797C353.197 234.638 344.61 232.222 339.501 236.401C334.392 240.581 334.696 249.772 340.179 256.932C345.663 264.091 354.25 266.507 359.358 262.328Z" fill="#1F41BB"/>
<path d="M323.479 274.296C323.386 274.296 323.295 274.263 323.222 274.204C323.149 274.144 323.097 274.06 323.076 273.966L310.691 220.451C310.607 220.086 310.426 219.752 310.17 219.487C309.914 219.221 309.592 219.033 309.239 218.945C308.886 218.856 308.517 218.869 308.171 218.984C307.825 219.098 307.517 219.308 307.279 219.592L303.462 224.151C303.426 224.194 303.383 224.229 303.334 224.254C303.285 224.279 303.232 224.295 303.178 224.299C303.123 224.303 303.068 224.296 303.017 224.278C302.965 224.26 302.917 224.232 302.876 224.195C302.834 224.158 302.801 224.113 302.776 224.063C302.752 224.012 302.737 223.957 302.733 223.901C302.729 223.845 302.736 223.788 302.753 223.735C302.77 223.681 302.798 223.632 302.833 223.589L306.651 219.03C306.989 218.627 307.427 218.329 307.919 218.167C308.41 218.005 308.935 217.986 309.436 218.113C309.936 218.239 310.394 218.506 310.758 218.883C311.121 219.261 311.378 219.735 311.498 220.253L323.882 273.768C323.908 273.879 323.89 273.996 323.832 274.093C323.774 274.19 323.682 274.259 323.575 274.286C323.543 274.293 323.511 274.297 323.479 274.296Z" fill="#494949"/>
<path d="M318.912 236.04C320.417 227.042 316.433 218.818 310.013 217.671C303.592 216.523 297.167 222.887 295.661 231.884C294.156 240.882 298.14 249.106 304.561 250.253C310.981 251.401 317.406 245.037 318.912 236.04Z" fill="#1F41BB"/>
<path d="M326.833 275.695C326.816 275.695 326.799 275.694 326.781 275.691C326.672 275.678 326.573 275.619 326.505 275.53C326.437 275.44 326.406 275.326 326.42 275.213L334.328 208.854C334.414 208.131 334.701 207.449 335.153 206.89C335.605 206.331 336.204 205.919 336.877 205.703C337.551 205.488 338.27 205.478 338.949 205.675C339.628 205.872 340.237 206.268 340.703 206.814L349.742 217.395C349.815 217.48 349.853 217.592 349.846 217.706C349.839 217.819 349.789 217.925 349.706 218.001C349.623 218.076 349.515 218.115 349.405 218.108C349.295 218.1 349.192 218.048 349.119 217.963L340.08 207.382C339.72 206.96 339.249 206.654 338.724 206.502C338.199 206.35 337.643 206.357 337.122 206.524C336.602 206.691 336.139 207.01 335.789 207.442C335.44 207.874 335.219 208.402 335.153 208.961L327.243 275.318C327.231 275.422 327.182 275.517 327.107 275.586C327.031 275.656 326.934 275.694 326.833 275.695Z" fill="#494949"/>
<path d="M359.012 223.274C362.165 217.381 358.455 209.022 350.723 204.602C342.992 200.183 334.168 201.377 331.014 207.269C327.861 213.161 331.571 221.521 339.303 225.941C347.034 230.36 355.858 229.166 359.012 223.274Z" fill="#1F41BB"/>
<path opacity="0.2" d="M359.358 262.328C364.467 258.149 364.164 248.957 358.68 241.797C353.197 234.638 344.61 232.222 339.501 236.401C334.392 240.581 334.696 249.772 340.179 256.932C345.663 264.091 354.25 266.507 359.358 262.328Z" fill="white"/>
<path opacity="0.5" d="M318.912 236.04C320.417 227.042 316.433 218.818 310.013 217.671C303.592 216.523 297.167 222.887 295.661 231.884C294.156 240.882 298.14 249.106 304.561 250.253C310.981 251.401 317.406 245.037 318.912 236.04Z" fill="white"/>
<path opacity="0.5" d="M359.012 223.274C362.165 217.381 358.455 209.022 350.723 204.602C342.992 200.183 334.168 201.377 331.014 207.269C327.861 213.161 331.571 221.521 339.303 225.941C347.034 230.36 355.858 229.166 359.012 223.274Z" fill="white"/>
<path d="M336.947 332H316.717L313.365 265.106H340.3L336.947 332Z" fill="#292A2E"/>
<path opacity="0.3" d="M336.947 332H316.717L313.365 265.106H340.3L336.947 332Z" fill="white"/>
<path d="M359.359 262.54C359.327 262.54 359.296 262.533 359.268 262.519C359.24 262.505 359.215 262.484 359.195 262.459L339.337 236.532C339.303 236.487 339.287 236.43 339.294 236.374C339.3 236.317 339.328 236.266 339.371 236.23C339.414 236.195 339.469 236.179 339.524 236.185C339.579 236.192 339.629 236.221 339.663 236.265L359.521 262.192C359.545 262.224 359.561 262.262 359.565 262.302C359.569 262.342 359.562 262.382 359.546 262.419C359.529 262.455 359.502 262.486 359.469 262.507C359.436 262.529 359.398 262.54 359.359 262.54Z" fill="white"/>
<path d="M357.691 225.351C357.647 225.351 357.604 225.336 357.569 225.308L332.158 206.134C332.136 206.117 332.117 206.096 332.103 206.072C332.089 206.048 332.079 206.022 332.075 205.994C332.071 205.966 332.072 205.937 332.078 205.91C332.085 205.883 332.096 205.857 332.112 205.834C332.128 205.811 332.149 205.792 332.172 205.777C332.195 205.763 332.221 205.753 332.248 205.748C332.275 205.744 332.303 205.745 332.329 205.752C332.356 205.759 332.381 205.771 332.403 205.787L357.814 224.963C357.848 224.99 357.874 225.028 357.887 225.07C357.9 225.113 357.9 225.159 357.886 225.202C357.873 225.244 357.847 225.282 357.812 225.308C357.777 225.335 357.735 225.349 357.691 225.35V225.351Z" fill="white"/>
<path d="M303.528 249.974C303.51 249.974 303.492 249.971 303.474 249.966C303.421 249.952 303.376 249.916 303.348 249.866C303.321 249.817 303.313 249.758 303.327 249.703L311.417 218.381C311.423 218.354 311.435 218.328 311.452 218.305C311.468 218.282 311.489 218.263 311.513 218.248C311.537 218.234 311.563 218.224 311.59 218.22C311.617 218.217 311.645 218.218 311.672 218.226C311.699 218.233 311.723 218.246 311.745 218.263C311.767 218.281 311.785 218.302 311.799 218.327C311.813 218.352 311.821 218.379 311.825 218.408C311.828 218.436 311.826 218.465 311.818 218.492L303.729 249.814C303.717 249.86 303.691 249.9 303.655 249.929C303.618 249.958 303.574 249.974 303.528 249.974Z" fill="white"/>
</svg>
