<?xml version="1.0" encoding="utf-8"?>
<!-- Generator: Adobe Illustrator 27.0.1, SVG Export Plug-In . SVG Version: 6.00 Build 0)  -->
<svg version="1.1" id="Layer_1" xmlns="http://www.w3.org/2000/svg" xmlns:xlink="http://www.w3.org/1999/xlink" x="0px" y="0px"
	 viewBox="0 0 375 234" style="enable-background:new 0 0 375 234;" xml:space="preserve">
<style type="text/css">
	.st0{opacity:0.4;enable-background:new    ;}
	.st1{fill:url(#SVGID_1_);}
</style>
<g class="st0">
	
		<linearGradient id="SVGID_1_" gradientUnits="userSpaceOnUse" x1="187.4707" y1="1.5085" x2="187.4707" y2="234.9703" gradientTransform="matrix(1 0 0 -1 0 236)">
		<stop  offset="0" style="stop-color:#6DE2C9"/>
		<stop  offset="1" style="stop-color:#0D0D0D"/>
	</linearGradient>
	<path class="st1" d="M328.6,243.2l-33.1-63.7H75.2l-29.8,58.4l-0.4-0.2l29.7-58.2H-57.6l-22.6,20.4l-0.3-0.3l22.2-20.1h-6.3V179
		h6.7l28.5-25.7h-35.2v-0.4h35.6l25.2-22.7h-60.8v-0.4h61.2l23.6-21.3h-84.9V108h85.3l20-18.1h-98.9l-25.6,13.2l-0.2-0.4L-59,89.9
		h-5.5v-0.4h6.3l30.5-15.7h-36.7v-0.4h37.5L1.7,58.6h-57.8l-17,6.6l-0.1-0.4l16.1-6.3h-7.2v-0.4h8.3l27.1-10.5h-35.4v-0.4h36.4
		l25.9-10.1h-62.3v-0.4h63.3l25.9-10h-89.2v-0.4h90.2l25.9-10.1H-64.5v-0.4H52.7l25.2-9.8L78,6.4l-24.3,9.4h30.5l20.1-10.4l0.2,0.4
		l-19.4,10h37.7l11.5-10.4l0.3,0.3l-11.1,10.1h34.9l7.6-14.9l0.4,0.2l-7.5,14.7h51.8L203,1.1l0.4-0.2l7.8,14.9h35.9l-10-9l0.3-0.3
		l10.3,9.3h39.3L266.2,4.8l0.2-0.4l21.3,11.5h30l-24.6-9.4l0.1-0.4l25.5,9.8h117.5v0.4H319.9l26.2,10.1h90.2v0.4h-89.2l26.2,10h63
		v0.4h-62l26.2,10.1h35.8v0.4h-34.8l20.4,7.9l-0.1,0.4l-21.4-8.2h-53.6l19.6,10.5h69.8v0.4h-69.1l27.6,14.8h41.5v0.4h-40.7
		l29.3,15.7h11.4v0.4h-10.7l28.8,15.5l-0.2,0.4l-29.5-15.8h-94.9l20.1,18.1h86.2v0.4h-85.8l23.8,21.3h62v0.4h-61.6l25.3,22.7h36.3
		v0.4h-35.8l28.6,25.7h7.2v0.4h-6.8l29.2,26.3l-0.3,0.3l-29.6-26.6H296l33,63.6L328.6,243.2z M295.8,179h132.7l-28.6-25.7H282.4
		L295.8,179z M75.4,179h219.9L282,153.3H88.6L75.4,179z M-57.2,179H75l13.1-25.7H-28.7L-57.2,179z M282.2,152.9h117.2l-25.3-22.7
		H270.4L282.2,152.9z M88.8,152.9h193L270,130.2H100.4L88.8,152.9z M-28.2,152.9H88.3l11.6-22.7h-103L-28.2,152.9z M270.2,129.8
		h103.5l-23.8-21.3h-90.8L270.2,129.8z M100.6,129.8h169.2l-11.1-21.3H111.5L100.6,129.8z M-2.6,129.8h102.8l10.9-21.3H21
		L-2.6,129.8z M258.9,108h90.6l-20.1-18.1h-79.8L258.9,108z M111.7,108h146.8l-9.4-18.1H120.9L111.7,108z M21.4,108h89.8l9.2-18.1
		h-79L21.4,108z M329.5,89.5H424l-29.3-15.7H312L329.5,89.5z M249.3,89.5h79.6l-17.5-15.7h-70.2L249.3,89.5z M121.1,89.5h127.7
		l-8.2-15.7H129.2L121.1,89.5z M41.9,89.5h78.8l8-15.7H59.3L41.9,89.5z M-57.3,89.5h98.6l17.4-15.7h-85.6L-57.3,89.5z M311.5,73.4
		H394l-27.6-14.8H295L311.5,73.4z M240.9,73.4h70l-16.5-14.8h-61.2L240.9,73.4z M129.4,73.4h111.1l-7.7-14.8H137L129.4,73.4z
		 M59.8,73.4h69.2l7.6-14.8H76.2L59.8,73.4z M-26.1,73.4h85.2l16.4-14.8h-73L-26.1,73.4z M294.6,58.2h71.1L346,47.6h-63.2
		L294.6,58.2z M233,58.2h61l-11.7-10.5h-54.7L233,58.2z M137.2,58.2h95.4l-5.5-10.5h-84.6L137.2,58.2z M76.6,58.2h60.1l5.4-10.5
		H88.2L76.6,58.2z M3.3,58.2H76l11.7-10.5H23.7L3.3,58.2z M-55.1,58.2H2.5l20.4-10.5H-28L-55.1,58.2z M346.1,47.2h53.3l-26.2-10.1
		h-45.8L346.1,47.2z M282.4,47.2h62.9l-18.7-10.1h-55.3L282.4,47.2z M227.3,47.2h54.5l-11.2-10.1h-48.5L227.3,47.2z M142.7,47.2
		h84.2l-5.2-10.1h-73.8L142.7,47.2z M88.7,47.2h53.6l5.1-10.1H99.8L88.7,47.2z M24.5,47.2h63.6l11.1-10.1H43.9L24.5,47.2z M-27,47.2
		h50.6l19.5-10.1H-1.1L-27,47.2z M326.7,36.8h45.5l-26.2-10h-38.1L326.7,36.8z M270.8,36.8h55l-18.7-10h-47.5L270.8,36.8z
		 M221.9,36.8h48.3l-11.2-10h-42.3L221.9,36.8z M148.1,36.8h73.4l-5.2-10h-63L148.1,36.8z M100.3,36.8h47.4l5.1-10h-41.4L100.3,36.8
		z M44.7,36.8h55l11.1-10H64.1L44.7,36.8z M0,36.8h43.9l19.4-10H25.8L0,36.8z M307.2,26.3H345l-26.2-10.1h-30.3L307.2,26.3z
		 M259.2,26.3h47.2l-18.7-10.1H248L259.2,26.3z M216.5,26.3h42.1l-11.2-10.1h-36.1L216.5,26.3z M153.4,26.3H216l-5.2-10.1h-52.3
		L153.4,26.3z M111.8,26.3H153l5.1-10.1H123L111.8,26.3z M64.9,26.3h46.3l11.1-10.1h-38L64.9,26.3z M26.8,26.3H64l19.5-10.1H52.7
		L26.8,26.3z"/>
</g>
</svg>
