<svg width="188" height="188" viewBox="0 0 188 188" fill="none" xmlns="http://www.w3.org/2000/svg">
<path d="M27.4167 96.7564C27.6672 96.2552 27.7762 95.6451 28.1303 95.3945C30.7505 93.5588 33.3434 91.6576 36.3449 90.4538C36.4811 90.3993 36.6772 90.481 36.9659 90.5137C37.7122 91.9245 37.8702 93.3681 36.7916 94.8443C37.7286 95.1603 38.5075 95.4327 38.5075 96.5548C38.5075 97.835 38.9106 99.1096 38.6001 100.559C37.9737 100.559 37.3527 100.706 36.8461 100.531C34.0734 99.5836 31.3224 98.5649 28.577 97.5353C28.1902 97.3883 27.8688 97.0669 27.4167 96.7564Z" fill="#1E1E1E"/>
<path d="M125.235 188C124.287 187.929 123.661 188 123.116 187.826C120 186.812 116.917 185.723 113.796 184.263C114.03 183.664 114.074 183.032 114.4 182.798C117.081 180.891 119.717 178.887 122.855 177.748C122.931 177.721 123.024 177.748 123.22 177.748C124.119 179.159 124.086 180.592 123.22 182.155C123.661 182.373 124.195 182.498 124.494 182.836C124.745 183.114 124.772 183.626 124.821 184.045C124.968 185.238 125.072 186.437 125.23 188H125.235Z" fill="#1E1E1E"/>
<path d="M150.19 154.041C150.778 155.672 150.758 157.186 150.13 158.584C150.555 158.671 150.958 158.758 151.464 158.862C151.846 160.583 152.287 162.326 151.927 164.249C151.421 164.249 150.974 164.358 150.609 164.233C147.738 163.253 144.879 162.245 142.03 161.204C141.572 161.035 141.191 160.649 140.657 160.284C140.973 159.755 141.131 159.194 141.496 158.933C143.985 157.19 146.475 155.436 149.264 154.183C149.487 154.085 149.765 154.106 150.19 154.046V154.041Z" fill="#1E1E1E"/>
<path d="M162.19 168.253C162.474 168.422 162.653 168.482 162.757 168.602C162.926 168.793 163.084 169.016 163.176 169.25C164.364 172.312 166.701 174.806 167.561 178.211C167.284 178.315 166.995 178.511 166.701 178.511C163.667 178.549 160.638 178.571 157.604 178.571C156.737 178.571 156.34 177.988 156.667 177.187C156.928 176.55 157.282 175.95 157.631 175.357C158.769 173.417 159.913 171.478 161.09 169.561C161.39 169.07 161.831 168.667 162.19 168.242V168.253Z" fill="#1E1E1E"/>
<path d="M121.836 42.4678C118.884 44.7775 115.446 45.8234 112.543 47.6428C111.715 47.3214 111.519 46.7658 111.524 46.1284C111.535 45.5238 111.622 44.9191 111.655 44.309C111.769 42.2281 111.884 40.1472 111.982 38.0608C112.014 37.369 111.927 36.65 112.674 36.236C114.21 36.857 119.374 40.3433 121.836 42.4623V42.4678Z" fill="#1E1E1E"/>
<path d="M151.622 62.5686C150.631 62.7048 150.135 62.4161 149.721 61.9095C147.924 59.6815 146.104 57.4644 144.328 55.2201C144.089 54.915 144.023 54.4629 143.882 54.0816C145.717 53.3571 152.39 52.382 154.815 52.4746C154.444 56.0644 152.538 59.1313 151.617 62.5686H151.622Z" fill="#1E1E1E"/>
<path d="M16.5764 71.8891C14.8223 73.5124 12.7469 74.6672 7.24502 77.1022C6.59678 76.8081 6.45515 76.2252 6.46059 75.5987C6.46604 74.9941 6.56954 74.3894 6.60223 73.7793C6.70573 71.7801 6.79833 69.7809 6.90183 67.7872C6.92362 67.3514 6.93996 66.9156 7.01078 66.4907C7.10338 65.9405 7.78975 65.5647 8.19831 65.8806C10.873 67.9506 14.0488 69.307 16.5764 71.8891Z" fill="#1E1E1E"/>
<path d="M26.1038 44.0148C26.5723 43.7806 26.8719 43.6281 27.3077 43.4047C28.6096 44.3199 29.9388 45.2514 31.3878 46.2701C31.1645 46.7222 31.0719 47.1743 30.7886 47.414C30.1349 47.9696 29.4267 48.4817 28.6805 48.9011C27.019 49.8272 25.3194 50.6879 23.6253 51.5595C23.244 51.7556 22.8354 51.9135 22.4269 52.0334C21.9148 52.1805 21.3919 51.81 21.2666 51.2653C21.2284 51.0964 21.1576 50.9221 21.174 50.7587C21.5172 47.6646 21.5771 44.5323 22.4759 41.5199C22.5249 41.362 22.6502 41.2258 22.7374 41.0787C24.5132 41.5199 25.0144 41.9448 26.1038 44.0148Z" fill="#1E1E1E"/>
<path d="M8.14928 16.1079C6.38978 15.1328 5.18591 13.9834 0.522949 8.8411C0.631897 7.89325 1.37819 7.60999 2.13537 7.40844C3.13769 7.14152 4.16725 6.96175 5.18046 6.73296C6.70028 6.38978 8.2092 6.00301 9.73992 5.70341C10.2901 5.59446 10.8839 5.70341 11.4722 5.70341C11.2597 8.23099 9.45665 13.8091 8.14928 16.1079Z" fill="#1E1E1E"/>
<path d="M138.881 105.935C138.712 107.667 138.374 109.111 136.887 109.923C136.838 110.653 137.508 110.457 137.89 110.985C137.465 112.537 136.963 114.253 136.283 116.105C135.7 115.849 135.182 115.751 134.828 115.452C132.785 113.709 130.781 111.922 128.776 110.135C128.525 109.912 128.324 109.607 128.161 109.307C127.79 108.632 128.068 107.825 128.798 107.629C132.055 106.758 135.335 105.99 138.881 105.935Z" fill="#1E1E1E"/>
<path d="M132.284 83.5465C131.631 84.3581 130.928 84.3309 130.231 84.2764C129.108 84.1893 127.986 84.0967 126.869 83.9768C124.898 83.7698 122.926 83.541 120.817 83.3013C120.861 82.8383 120.752 82.3317 120.954 82.0484C122.773 79.5318 124.647 77.0532 126.515 74.5692C126.662 74.3731 126.88 74.2315 127.207 73.9373C127.638 74.4984 128.133 74.9723 128.417 75.5443C129.359 77.489 130.214 79.4718 131.129 81.4274C131.456 82.1193 131.865 82.773 132.284 83.5356V83.5465Z" fill="#1E1E1E"/>
<path d="M174.855 10.6115C174.371 8.3236 174.823 4.00927 175.999 0C176.364 0.0381317 176.822 -0.0381317 177.132 0.141632C178.255 0.795318 178.696 1.34006 179.502 2.75093C179.796 2.5984 180.09 2.44587 180.553 2.20619C181.741 3.03964 183.021 3.90577 184.269 4.82093C184.699 5.13688 184.666 5.85593 184.198 6.17733C183.201 6.8637 182.199 7.54462 181.153 8.14928C179.802 8.92826 178.407 9.63097 177.034 10.3664C176.337 10.7422 175.64 11.0909 174.855 10.6006V10.6115Z" fill="#1E1E1E"/>
<path d="M87.4305 118.17C88.9521 119.06 90.0398 120.082 90.6934 121.237C90.9985 121.106 91.3144 120.975 91.7938 120.774C93.2156 121.52 94.5829 122.517 95.912 123.71C95.6941 124.952 94.6264 125.41 93.8148 125.894C91.8101 127.082 89.6966 128.079 87.6157 129.141C87.3869 129.255 87.0818 129.413 86.8857 129.343C86.5153 129.217 86.0632 129.01 85.8943 128.7C85.7091 128.357 85.7254 127.85 85.7799 127.436C86.1503 124.609 86.548 121.787 86.962 118.965C86.9947 118.737 87.2126 118.53 87.4359 118.17H87.4305Z" fill="#1E1E1E"/>
<path d="M28.5552 150.604C25.4992 153.071 22.051 154.112 19.1421 155.909C18.2269 155.708 18.1289 155.065 18.1507 154.471C18.2106 152.652 18.3359 150.833 18.4394 149.013C18.5048 147.804 18.5429 146.594 18.6518 145.391C18.7226 144.628 19.3545 144.274 19.9265 144.661C22.7101 146.556 25.4774 148.474 28.5552 150.598V150.604Z" fill="#1E1E1E"/>
<path d="M33.8228 1.93927C35.4788 2.66922 36.8243 3.3229 37.0041 5.34933C37.527 5.07151 37.8811 4.8863 38.355 4.63572C39.6678 5.15322 40.7845 6.11196 41.9503 6.98899C42.5059 7.40844 42.4896 8.08936 41.9285 8.54694C41.3347 9.0372 40.7083 9.50568 40.0382 9.88155C38.2951 10.8457 36.5192 11.75 34.7543 12.6706C34.5255 12.7904 34.2858 12.8939 34.0407 12.9757C32.973 13.3461 32.303 12.9103 32.3629 11.7718C32.5209 8.56873 32.8041 5.38201 33.8228 1.93382V1.93927Z" fill="#1E1E1E"/>
<path d="M173.45 78.2571C175.084 78.9707 176.261 79.7333 176.729 81.3076C177.427 81.2913 178.075 80.6376 178.838 81.3457C179.66 82.1029 180.673 82.6477 181.572 83.3286C182.128 83.748 182.117 84.527 181.523 84.8756C178.979 86.3628 176.408 87.8118 173.842 89.2608C173.624 89.3861 173.347 89.4133 173.091 89.4569C172.578 89.544 172.066 89.1355 171.996 88.5908C171.974 88.4164 171.947 88.2421 171.957 88.0732C172.17 84.8756 172.42 81.678 173.455 78.2516L173.45 78.2571Z" fill="#1E1E1E"/>
<path d="M61.3103 29.3777C64.497 28.4571 69.879 27.7707 72.0797 28.0213C71.5187 31.5621 69.8027 34.6944 68.7732 37.9737C67.967 38.2297 67.444 37.9628 67.03 37.4671C66.36 36.6663 65.7172 35.8492 65.0581 35.043C63.9631 33.6975 62.8682 32.352 61.7678 31.0174C61.3702 30.5326 61.0161 30.0532 61.3157 29.3777H61.3103Z" fill="#1E1E1E"/>
<path d="M52.9431 117.456C53.2155 117.516 53.4007 117.522 53.5423 117.598C53.6894 117.674 53.8419 117.8 53.9127 117.947C55.4707 120.986 57.0177 124.026 58.5103 126.962C58.3142 127.594 57.9274 127.458 57.6061 127.458C55.1003 127.447 52.5999 127.431 50.0941 127.403C49.4241 127.398 48.7595 127.343 47.9315 127.305C48.1331 126.472 48.1603 125.747 48.4708 125.17C49.3151 123.579 50.2739 122.054 51.1836 120.502C51.7828 119.483 52.3711 118.453 52.9485 117.462L52.9431 117.456Z" fill="#1E1E1E"/>
<path d="M143.016 7.29404C143.223 7.40844 143.549 7.47381 143.642 7.65902C145.276 10.7695 146.883 13.8963 148.605 17.2246C148.087 17.3118 147.782 17.4262 147.488 17.3989C144.889 17.1701 142.296 16.925 139.704 17.4262C139.453 17.4752 139.186 17.4589 138.925 17.4589C138.113 17.4589 137.775 17.0666 138.004 16.3312C138.184 15.7538 138.369 15.1546 138.685 14.6535C140.118 12.3982 141.414 10.0722 142.602 7.68081C142.672 7.53917 142.847 7.44657 143.005 7.29949L143.016 7.29404Z" fill="#1E1E1E"/>
<path d="M84.369 65.483C84.2601 64.7149 84.0095 63.9468 84.0803 63.2114C84.2328 61.6698 84.4453 60.1445 84.3908 58.5811C84.3472 57.3173 84.6087 56.0427 84.734 54.7734C85.2678 54.2995 85.7309 54.6808 86.1122 54.9695C88.7269 56.9306 91.3199 58.9189 93.9237 60.8963C93.9728 61.3321 93.6895 61.4247 93.3409 61.5554C90.9822 62.4106 88.7378 63.5001 86.6188 64.8565C86.0468 65.2215 85.5293 65.7335 84.3636 65.4884L84.369 65.483Z" fill="#1E1E1E"/>
<path d="M163.013 111.769C163.318 111.769 163.645 111.666 163.808 111.786C166.657 113.867 169.484 115.975 172.382 118.121C169.19 119.744 166.14 121.291 162.926 122.926C162.523 122.021 162.152 121.193 162.321 120.229C162.773 117.674 162.839 115.092 162.839 112.505C162.839 112.271 162.947 112.036 163.013 111.769Z" fill="#1E1E1E"/>
<path d="M26.2673 176.059C22.8082 177.345 19.8285 179.006 16.7616 180.875C16.2277 179.731 16.0589 178.865 16.1351 177.895C16.3367 175.318 16.4783 172.742 16.6581 170.165C16.6744 169.931 16.8106 169.708 16.8869 169.495C17.1157 169.495 17.3118 169.435 17.4425 169.506C17.9001 169.751 18.3522 170.007 18.7662 170.318C21.2121 172.175 23.6525 174.049 26.2673 176.054V176.059Z" fill="#1E1E1E"/>
<path d="M53.4279 66.5289C51.9517 65.0526 50.7805 63.8106 49.5276 62.6503C48.2747 61.49 46.9455 60.4114 45.5129 59.1749C47.1307 58.5539 48.558 58.0092 49.9852 57.4644C51.4342 56.9088 52.8832 56.3368 54.3431 55.8084C54.817 55.6341 55.3345 55.536 55.8411 55.5034C56.0045 55.4925 56.3477 55.8139 56.3423 55.9773C56.3259 56.4784 56.3205 57.0668 56.059 57.459C55.2582 58.6628 55.1057 60.0247 54.8061 61.3702C54.452 62.9717 53.9672 64.5406 53.4279 66.5289Z" fill="#1E1E1E"/>
<path d="M73.8556 174.501C73.7684 175.166 73.8229 175.558 73.6704 175.825C72.3576 178.124 72.2976 180.782 71.4914 183.228C71.279 183.876 71.0938 184.53 70.8214 185.434C69.8136 184.17 68.3319 183.631 67.8744 182.084C67.8144 181.888 67.5856 181.627 67.4004 181.594C66.1966 181.376 65.4939 180.515 64.7367 179.682C64.2301 179.132 63.6145 178.685 62.9772 178.129C66.2075 176.909 69.3942 175.7 72.5918 174.518C72.8805 174.409 73.2455 174.501 73.861 174.501H73.8556Z" fill="#1E1E1E"/>
<path d="M96.1517 4.30888C98.8046 6.78199 101.31 9.11891 103.745 11.385C103.626 12.4037 102.863 12.3873 102.351 12.4799C99.5127 12.9648 97.0832 14.5445 94.2506 15.4379C94.2506 15.0184 94.207 14.6153 94.256 14.2286C94.5829 11.7446 94.9533 9.26599 95.2583 6.77654C95.3945 5.67072 95.3455 5.65983 96.1463 4.30888H96.1517Z" fill="#1E1E1E"/>
<path d="M183.086 152.548C181.055 149.334 179.208 146.426 177.378 143.506C177.307 143.397 177.405 143.179 177.448 142.847C177.808 142.809 178.244 142.64 178.598 142.749C180.123 143.228 181.676 143.141 183.234 143.114C184.775 143.092 186.322 143.103 188 143.397C187.842 145.38 186.164 146.398 185.538 147.973C184.939 149.487 184.007 150.865 183.086 152.548Z" fill="#1E1E1E"/>
<path d="M2.46766 126.085C2.60385 124.838 2.86532 123.759 3.0233 122.659C3.31201 120.687 3.45909 118.693 3.67154 116.71C3.74235 116.04 3.67154 115.299 4.60304 114.934C5.87772 116.138 7.16331 117.375 8.47068 118.589C9.79439 119.815 11.1399 121.008 12.5726 122.31C12.0006 122.577 11.6302 122.768 11.2488 122.92C9.84887 123.487 8.28547 123.405 6.91273 124.271C5.63804 125.077 4.09098 125.448 2.47311 126.085H2.46766Z" fill="#1E1E1E"/>
<path d="M60.9453 152.815C61.5009 152.853 61.8877 152.881 62.2581 152.903C62.2962 152.63 62.3507 152.521 62.318 152.472C60.7002 149.928 61.1795 150.299 62.6285 148.566C62.7375 148.436 62.8464 148.305 63.0807 148.016C63.5491 148.196 64.2954 148.245 64.5733 148.632C65.995 150.598 68.1304 151.889 69.4596 153.921C69.6393 154.199 69.7809 154.499 70.0424 154.973C66.5016 155.877 63.0861 156.547 59.5453 157.053C59.3056 155.321 60.1772 154.134 60.9507 152.815H60.9453Z" fill="#1E1E1E"/>
<path d="M79.815 86.3083C80.2672 86.4663 80.5341 86.5153 80.7465 86.6515C81.0298 86.8367 81.3403 87.0382 81.5201 87.3161C82.9527 89.446 85.4857 90.6281 86.5861 93.2809C85.8235 93.5152 85.1208 93.8584 84.3963 93.9292C81.6018 94.2179 78.938 95.3891 75.9801 95.2801C76.1707 93.6459 76.7318 92.3331 77.6524 91.1728C77.8594 91.2 78.0283 91.2545 78.1971 91.2436C78.4368 91.2327 78.6929 91.2109 78.9053 91.1129C78.9707 91.0856 78.9816 90.7697 78.9053 90.639C78.5512 89.9853 77.6306 89.5223 78.0283 88.6234C78.2952 88.0188 78.8182 87.5231 79.2322 86.9838C79.3847 86.7822 79.559 86.597 79.8096 86.3028L79.815 86.3083Z" fill="#1E1E1E"/>
<path d="M167.54 44.2382C167.681 42.5005 168.368 41.2312 169.174 40.0274C169.588 40.1744 169.986 40.327 170.394 40.4577C170.465 40.4795 170.557 40.4196 170.683 40.3869C170.961 39.6188 170.22 39.39 169.893 38.9433C169.326 38.1643 169.321 37.5107 169.942 36.8515C170.291 36.4757 170.699 36.1379 171.124 35.8492C171.68 35.4624 172.388 35.4897 172.769 36.0126C174.338 38.1807 176.637 39.7169 178.129 42.1409C177.655 42.3534 177.29 42.6258 176.898 42.6748C173.837 43.0779 170.922 44.3689 167.54 44.2382Z" fill="#1E1E1E"/>
<path d="M118.726 145.385C118.094 145.608 117.642 145.875 117.162 145.924C114.259 146.246 111.497 147.428 108.354 147.357C108.071 146.393 108.528 145.576 108.85 144.71C109.269 143.588 110.282 143.609 111.453 143.435C111.029 142.847 110.74 142.46 110.462 142.062C109.95 141.332 109.928 140.798 110.375 140.161C110.473 140.019 110.587 139.889 110.702 139.763C112.058 138.244 112.581 138.276 113.981 139.829C114.733 140.662 115.588 141.392 116.367 142.198C117.244 143.114 118.067 144.078 118.731 145.38L118.726 145.385Z" fill="#1E1E1E"/>
</svg>
